# xmcd
#
# Track frame offsets:
#	150
#	14831
#	32595
#	44471
#	59605
#	73427
#	85949
#	103149
#	113771
#	129508
#	143782
#	159585
#	171592
#
# Disc length: 2473 seconds
#
# Revision: 1
# Processed by: cddbd v1.5.2PL0 Copyright (c) Steve Scherf et al.
# Submitted via: audiograbber 1.83.01
#
DISCID=c409a70d
DTITLE=Country Discovery - Stable of Thorughbreds 02
DYEAR=1900
DGENRE=
TTITLE0=Nr 1 American Cowboy  - Shane Worley
TTITLE1=Yuo Had Me By The Heart  - Robert Mizzell
TTITLE2=If You So Much As Touch Me - Barb Marchuk
TTITLE3=Tiny Band Of Gold - Jacob Lyda
TTITLE4=Perfecct Place  - Shayne Weems
TTITLE5=What Part Of No  - Liana Wallander
TTITLE6=Red Hot  - Jonathan Black
TTITLE7=Swang Thang  - Mike Headrick
TTITLE8=My Tennessee Rises  - Shane Worley
TTITLE9=This Woman Of Mine - Robert Mizzell
TTITLE10=This Is Now That Was Yesterday - Barb Marchuk
TTITLE11=I Know Your Memeory By Heart - Jacob Lyda
TTITLE12=Home Is Not A Safe Place To Be  - Shayne Weems
EXTD=
EXTT0=
EXTT1=
EXTT2=
EXTT3=
EXTT4=
EXTT5=
EXTT6=
EXTT7=
EXTT8=
EXTT9=
EXTT10=
EXTT11=
EXTT12=
PLAYORDER=
